<svg width="100" height="100" viewBox="0 0 100 100" fill="none" xmlns="http://www.w3.org/2000/svg">
<g id="forward">
<rect width="100" height="100" fill="white"/>
<g id="light">
<path id="light1" opacity="0.7" d="M12.0381 68.4256V31.5744C12.0381 28.3567 15.6442 26.456 18.2987 28.2745L45.1956 46.7001C47.5148 48.2888 47.5148 51.7112 45.1956 53.2999L18.2987 71.7255C15.6442 73.544 12.0381 71.6433 12.0381 68.4256Z" fill="#76E5FC"/>
</g>
<g id="dark">
<path id="dark2" opacity="0.7" d="M35.0251 68.4256V31.5744C35.0251 28.3567 38.6312 26.456 41.2858 28.2745L68.1827 46.7001C70.5019 48.2888 70.5019 51.7112 68.1827 53.2999L41.2858 71.7255C38.6312 73.544 35.0251 71.6433 35.0251 68.4256Z" fill="#9272FF"/>
<path id="dark1" opacity="0.7" d="M12 68.4256V31.5744C12 28.3567 15.6061 26.456 18.2606 28.2745L45.1575 46.7001C47.4767 48.2888 47.4767 51.7112 45.1575 53.2999L18.2606 71.7255C15.6061 73.544 12 71.6433 12 68.4256Z" fill="#9272FF"/>
</g>
</g>
</svg>
