<svg width="100" height="100" viewBox="0 0 100 100" fill="none" xmlns="http://www.w3.org/2000/svg">
<g id="gears">
<rect width="100" height="100" fill="white"/>
<path id="big" opacity="0.7" fill-rule="evenodd" clip-rule="evenodd" d="M37.5561 12.7175C37.0039 12.7175 36.5561 13.1652 36.5561 13.7175V20.0944C36.5561 21.7724 35.4041 23.2182 33.8545 23.862C32.3046 24.5059 30.4951 24.2844 29.3082 23.0975L24.7984 18.5877C24.4079 18.1972 23.7747 18.1972 23.3842 18.5877L16.3702 25.6018C15.9797 25.9923 15.9797 26.6254 16.3702 27.016L20.88 31.5258C22.0668 32.7126 22.2884 34.5221 21.6444 36.0721C21.0007 37.6216 19.5549 38.7737 17.8769 38.7737L11.5 38.7737C10.9477 38.7737 10.5 39.2214 10.5 39.7737L10.5 49.693C10.5 50.2453 10.9477 50.693 11.5 50.693H17.8769C19.5549 50.693 21.0007 51.845 21.6444 53.3946C22.2884 54.9446 22.0668 56.7541 20.88 57.9409L16.3702 62.4507C15.9797 62.8412 15.9797 63.4744 16.3702 63.8649L23.3842 70.8789C23.7747 71.2694 24.4079 71.2694 24.7984 70.8789L29.3082 66.3691C30.4951 65.1823 32.3046 64.9607 33.8545 65.6047C35.4041 66.2485 36.5561 67.6942 36.5561 69.3722V75.7491C36.5561 76.3014 37.0038 76.7491 37.5561 76.7491H47.4754C48.0277 76.7491 48.4754 76.3014 48.4754 75.7491V69.3722C48.4754 67.6942 49.6275 66.2485 51.177 65.6047C52.727 64.9607 54.5365 65.1823 55.7234 66.3691L60.2332 70.8789C60.6237 71.2694 61.2569 71.2694 61.6474 70.8789L68.6614 63.8649C69.0519 63.4744 69.0519 62.8412 68.6614 62.4507L64.1516 57.9409C62.9647 56.7541 62.7432 54.9446 63.3871 53.3946C64.0309 51.845 65.4767 50.693 67.1547 50.693H73.5316C74.0839 50.693 74.5316 50.2453 74.5316 49.693V39.7737C74.5316 39.2214 74.0839 38.7737 73.5316 38.7737H67.1547C65.4767 38.7737 64.0309 37.6217 63.3871 36.0721C62.7432 34.5221 62.9647 32.7126 64.1516 31.5258L68.6614 27.0159C69.0519 26.6254 69.0519 25.9923 68.6614 25.6017L61.6474 18.5877C61.2568 18.1972 60.6237 18.1972 60.2332 18.5877L55.7233 23.0975C54.5365 24.2844 52.727 24.5059 51.177 23.862C49.6275 23.2182 48.4754 21.7724 48.4754 20.0944V13.7175C48.4754 13.1652 48.0277 12.7175 47.4754 12.7175H37.5561ZM42.3772 55.9596C48.5008 55.9596 53.4649 50.9955 53.4649 44.8719C53.4649 38.7483 48.5008 33.7842 42.3772 33.7842C36.2536 33.7842 31.2895 38.7483 31.2895 44.8719C31.2895 50.9955 36.2536 55.9596 42.3772 55.9596Z" fill="#5136AD"/>
<path id="small" opacity="0.7" fill-rule="evenodd" clip-rule="evenodd" d="M63.8678 42.3772C63.3155 42.3772 62.8678 42.8249 62.8678 43.3772V47.5506C62.8678 48.7274 62.0599 49.7413 60.9732 50.1928C59.8862 50.6444 58.6172 50.489 57.7849 49.6567L54.8334 46.7052C54.4429 46.3147 53.8097 46.3147 53.4192 46.7052L48.9227 51.2017C48.5322 51.5922 48.5322 52.2254 48.9227 52.6159L51.8742 55.5674C52.7065 56.3997 52.8619 57.6687 52.4103 58.7557C51.9588 59.8424 50.9449 60.6503 49.7681 60.6503H45.5947C45.0424 60.6503 44.5947 61.098 44.5947 61.6503L44.5947 68.0093C44.5947 68.5616 45.0424 69.0093 45.5947 69.0093H49.7681C50.9449 69.0093 51.9588 69.8172 52.4103 70.904C52.8619 71.991 52.7065 73.26 51.8742 74.0923L48.9227 77.0438C48.5322 77.4343 48.5322 78.0675 48.9227 78.458L53.4192 82.9545C53.8097 83.345 54.4429 83.345 54.8334 82.9545L57.7849 80.003C58.6172 79.1707 59.8862 79.0153 60.9732 79.4669C62.0599 79.9184 62.8678 80.9323 62.8678 82.1091V86.2824C62.8678 86.8347 63.3156 87.2824 63.8678 87.2824H70.2268C70.7791 87.2824 71.2268 86.8347 71.2268 86.2824V82.1091C71.2268 80.9323 72.0347 79.9184 73.1215 79.4669C74.2085 79.0153 75.4775 79.1706 76.3098 80.003L79.2613 82.9545C79.6518 83.345 80.285 83.345 80.6755 82.9545L85.172 78.458C85.5625 78.0675 85.5625 77.4343 85.172 77.0438L82.2205 74.0922C81.3882 73.2599 81.2328 71.9909 81.6844 70.9039C82.1359 69.8172 83.1498 69.0093 84.3265 69.0093H88.5C89.0522 69.0093 89.5 68.5616 89.5 68.0093V61.6503C89.5 61.098 89.0522 60.6503 88.5 60.6503H84.3266C83.1498 60.6503 82.1359 59.8424 81.6844 58.7557C81.2328 57.6687 81.3881 56.3997 82.2205 55.5674L85.1719 52.6159C85.5625 52.2253 85.5625 51.5922 85.1719 51.2017L80.6755 46.7052C80.2849 46.3146 79.6518 46.3146 79.2613 46.7052L76.3097 49.6567C75.4774 50.489 74.2084 50.6444 73.1214 50.1928C72.0347 49.7413 71.2268 48.7274 71.2268 47.5506V43.3772C71.2268 42.8249 70.7791 42.3772 70.2268 42.3772H63.8678ZM66.9501 72.7028C71.2446 72.7028 74.7259 69.2215 74.7259 64.927C74.7259 60.6326 71.2446 57.1512 66.9501 57.1512C62.6557 57.1512 59.1743 60.6326 59.1743 64.927C59.1743 69.2215 62.6557 72.7028 66.9501 72.7028Z" fill="#76E5FC"/>
</g>
</svg>
