<svg width="100" height="100" viewBox="0 0 100 100" fill="none" xmlns="http://www.w3.org/2000/svg">
<g id="levelup">
<rect width="100" height="100" fill="white"/>
<path id="top" opacity="0.7" fill-rule="evenodd" clip-rule="evenodd" d="M70.0252 63.4636C71.7714 65.2099 74.6027 65.2099 76.3489 63.4636C78.0952 61.7173 78.0952 58.8861 76.3489 57.1398L56.3243 37.1152C56.3242 37.1151 56.3242 37.1151 56.3243 37.115V37.115C56.3243 37.115 56.3243 37.115 56.3243 37.1149L53.1085 33.8991C51.392 32.1827 48.6091 32.1827 46.8927 33.8991V33.8991C46.8744 33.9168 46.8562 33.9347 46.8381 33.9528C46.8201 33.9708 46.8022 33.989 46.7845 34.0073L23.6516 57.1402C21.9053 58.8865 21.9053 61.7177 23.6516 63.464V63.464C25.3978 65.2102 28.2291 65.2102 29.9753 63.464L44.3436 49.0957C47.4678 45.9715 52.5331 45.9715 55.6573 49.0957L70.0252 63.4636Z" fill="#2C1C64"/>
<path id="mid" opacity="0.7" fill-rule="evenodd" clip-rule="evenodd" d="M70.0252 63.4636C71.7714 65.2099 74.6027 65.2099 76.3489 63.4636C78.0952 61.7174 78.0952 58.8861 76.3489 57.1399L56.3242 37.1151C56.3241 37.1151 56.3241 37.115 56.3242 37.115V37.115C56.3242 37.1149 56.3242 37.1149 56.3242 37.1148L53.1137 33.9043C51.3943 32.185 48.6067 32.185 46.8873 33.9043V33.9043C46.8708 33.9203 46.8544 33.9365 46.8381 33.9528C46.8218 33.9691 46.8056 33.9855 46.7896 34.002L23.6515 57.1401C21.9052 58.8864 21.9052 61.7176 23.6515 63.4639V63.4639C25.3978 65.2101 28.229 65.2101 29.9753 63.4639L44.3435 49.0957C47.4677 45.9715 52.533 45.9715 55.6572 49.0956L70.0252 63.4636Z" fill="#9272FF"/>
</g>
</svg>
