<svg width="576" height="409" viewBox="0 0 576 409" fill="none" xmlns="http://www.w3.org/2000/svg">
<g filter="url(#filter0_d)">
<rect x="12.3794" y="73.6539" width="367.948" height="249.84" rx="8" fill="#383851"/>
</g>
<path d="M54.8207 132.848H54.5967C54.17 133.851 53.5727 134.672 52.8047 135.312C52.058 135.931 51.0233 136.24 49.7007 136.24C48.7833 136.24 47.9407 136.07 47.1727 135.728C46.426 135.387 45.7753 134.864 45.2207 134.16C44.6873 133.456 44.2607 132.56 43.9407 131.472C43.642 130.384 43.4927 129.094 43.4927 127.6C43.4927 126.107 43.642 124.816 43.9407 123.728C44.2607 122.64 44.6873 121.744 45.2207 121.04C45.7753 120.336 46.426 119.814 47.1727 119.472C47.9407 119.131 48.7833 118.96 49.7007 118.96C50.362 118.96 50.9487 119.046 51.4607 119.216C51.9727 119.387 52.4207 119.622 52.8047 119.92C53.21 120.219 53.5513 120.582 53.8287 121.008C54.1273 121.414 54.3833 121.862 54.5967 122.352H54.8207V112.176H59.5567V135.856H54.8207V132.848ZM51.7487 132.56C52.5807 132.56 53.2953 132.358 53.8927 131.952C54.5113 131.547 54.8207 130.907 54.8207 130.032V125.168C54.8207 124.294 54.5113 123.654 53.8927 123.248C53.2953 122.843 52.5807 122.64 51.7487 122.64C50.682 122.64 49.8607 122.971 49.2847 123.632C48.7087 124.272 48.4207 125.168 48.4207 126.32V128.88C48.4207 130.032 48.7087 130.939 49.2847 131.6C49.8607 132.24 50.682 132.56 51.7487 132.56Z" fill="#FD3E81"/>
<path d="M71.4802 136.24C68.7068 136.24 66.6055 135.472 65.1762 133.936C63.7468 132.4 63.0322 130.31 63.0322 127.664C63.0322 126.32 63.2135 125.115 63.5762 124.048C63.9602 122.96 64.4935 122.043 65.1762 121.296C65.8802 120.528 66.7228 119.952 67.7042 119.568C68.7068 119.163 69.8268 118.96 71.0642 118.96C72.3015 118.96 73.4108 119.163 74.3922 119.568C75.3735 119.952 76.2055 120.507 76.8882 121.232C77.5708 121.958 78.0935 122.843 78.4562 123.888C78.8402 124.912 79.0322 126.064 79.0322 127.344V128.752H67.7362V129.04C67.7362 130.107 68.0668 130.971 68.7282 131.632C69.3895 132.272 70.3602 132.592 71.6402 132.592C72.6215 132.592 73.4642 132.411 74.1682 132.048C74.8722 131.664 75.4802 131.163 75.9922 130.544L78.5522 133.328C77.9122 134.118 77.0162 134.8 75.8642 135.376C74.7122 135.952 73.2508 136.24 71.4802 136.24ZM71.0962 122.352C70.0722 122.352 69.2508 122.672 68.6322 123.312C68.0348 123.931 67.7362 124.774 67.7362 125.84V126.096H74.3922V125.84C74.3922 124.752 74.0935 123.899 73.4962 123.28C72.9202 122.662 72.1202 122.352 71.0962 122.352Z" fill="#FD3E81"/>
<path d="M87.4037 135.856L81.4837 119.344H86.4757L88.6197 126.416L90.1877 131.92H90.4437L92.0117 126.416L94.1557 119.344H98.9557L93.0357 135.856H87.4037Z" fill="#FD3E81"/>
<path d="M102.079 132.176H106.943V123.024H101.759V119.344H106.943V116.944C106.943 115.536 107.349 114.395 108.159 113.52C108.991 112.624 110.271 112.176 111.999 112.176H117.599V115.856H111.679V119.344H117.599V123.024H111.679V132.176H116.863V135.856H102.079V132.176Z" fill="#FD3E81"/>
<path d="M127.091 136.176C125.491 136.048 124.083 135.696 122.867 135.12C121.672 134.523 120.701 133.744 119.955 132.784L122.739 129.744C123.421 130.47 124.147 131.035 124.915 131.44C125.704 131.846 126.536 132.112 127.411 132.24V126.352L126.675 126.224C124.627 125.862 123.112 125.115 122.131 123.984C121.149 122.832 120.659 121.435 120.659 119.792C120.659 117.979 121.213 116.507 122.323 115.376C123.432 114.246 125.021 113.542 127.091 113.264V109.904H130.739V113.232C132.083 113.403 133.224 113.744 134.163 114.256C135.123 114.768 135.923 115.398 136.563 116.144L133.811 119.216C132.915 118.235 131.784 117.595 130.419 117.296V122.64L131.155 122.768C133.203 123.152 134.717 123.899 135.699 125.008C136.68 126.096 137.171 127.451 137.171 129.072C137.171 129.947 137.021 130.768 136.723 131.536C136.445 132.304 136.029 132.987 135.475 133.584C134.941 134.182 134.269 134.694 133.459 135.12C132.669 135.526 131.763 135.824 130.739 136.016V139.472H127.091V136.176ZM125.171 119.632C125.171 120.315 125.341 120.838 125.683 121.2C126.045 121.542 126.621 121.819 127.411 122.032V117.2C126.621 117.328 126.045 117.595 125.683 118C125.341 118.406 125.171 118.95 125.171 119.632ZM132.691 129.392C132.691 128.667 132.509 128.123 132.147 127.76C131.784 127.398 131.208 127.12 130.419 126.928V132.208C131.187 132.038 131.752 131.718 132.115 131.248C132.499 130.758 132.691 130.139 132.691 129.392Z" fill="#FD3E81"/>
<path d="M160.09 131.248L169.594 126.224V125.968L160.09 120.944V116.528L173.85 123.888V128.304L160.09 135.664V131.248Z" fill="#FD3E81"/>
<path d="M205.153 136.24C203.318 136.24 201.718 135.963 200.353 135.408C199.009 134.854 197.995 134.096 197.313 133.136L199.969 130.672C200.609 131.376 201.355 131.931 202.209 132.336C203.083 132.72 204.075 132.912 205.185 132.912C206.123 132.912 206.859 132.774 207.393 132.496C207.926 132.198 208.193 131.75 208.193 131.152C208.193 130.683 208.011 130.363 207.649 130.192C207.286 130 206.785 129.851 206.145 129.744L203.489 129.328C202.742 129.222 202.049 129.062 201.409 128.848C200.769 128.614 200.214 128.304 199.745 127.92C199.275 127.536 198.902 127.067 198.625 126.512C198.347 125.958 198.209 125.286 198.209 124.496C198.209 122.768 198.87 121.414 200.193 120.432C201.515 119.451 203.371 118.96 205.761 118.96C207.382 118.96 208.758 119.184 209.889 119.632C211.041 120.059 211.958 120.678 212.641 121.488L210.273 124.176C209.782 123.643 209.153 123.195 208.385 122.832C207.617 122.47 206.689 122.288 205.601 122.288C203.766 122.288 202.849 122.843 202.849 123.952C202.849 124.443 203.03 124.784 203.393 124.976C203.755 125.147 204.257 125.286 204.897 125.392L207.521 125.808C208.267 125.915 208.961 126.086 209.601 126.32C210.241 126.534 210.795 126.832 211.265 127.216C211.755 127.6 212.139 128.07 212.417 128.624C212.694 129.179 212.833 129.851 212.833 130.64C212.833 132.368 212.161 133.734 210.817 134.736C209.494 135.739 207.606 136.24 205.153 136.24Z" fill="#FD3E81"/>
<path d="M227.316 132.848H227.124C226.762 133.787 226.186 134.587 225.396 135.248C224.628 135.91 223.583 136.24 222.26 136.24C221.471 136.24 220.746 136.112 220.084 135.856C219.423 135.579 218.858 135.174 218.388 134.64C217.919 134.107 217.546 133.456 217.268 132.688C217.012 131.92 216.884 131.035 216.884 130.032V119.344H221.62V129.392C221.62 131.526 222.548 132.592 224.404 132.592C224.767 132.592 225.119 132.55 225.46 132.464C225.823 132.358 226.132 132.208 226.388 132.016C226.666 131.803 226.89 131.547 227.06 131.248C227.231 130.95 227.316 130.598 227.316 130.192V119.344H232.052V135.856H227.316V132.848Z" fill="#FD3E81"/>
<path d="M246.696 132.848H246.472C246.045 133.851 245.448 134.672 244.68 135.312C243.933 135.931 242.898 136.24 241.576 136.24C240.658 136.24 239.816 136.07 239.048 135.728C238.301 135.387 237.65 134.864 237.096 134.16C236.562 133.456 236.136 132.56 235.816 131.472C235.517 130.384 235.368 129.094 235.368 127.6C235.368 126.107 235.517 124.816 235.816 123.728C236.136 122.64 236.562 121.744 237.096 121.04C237.65 120.336 238.301 119.814 239.048 119.472C239.816 119.131 240.658 118.96 241.576 118.96C242.237 118.96 242.824 119.046 243.336 119.216C243.848 119.387 244.296 119.622 244.68 119.92C245.085 120.219 245.426 120.582 245.704 121.008C246.002 121.414 246.258 121.862 246.472 122.352H246.696V112.176H251.432V135.856H246.696V132.848ZM243.624 132.56C244.456 132.56 245.17 132.358 245.768 131.952C246.386 131.547 246.696 130.907 246.696 130.032V125.168C246.696 124.294 246.386 123.654 245.768 123.248C245.17 122.843 244.456 122.64 243.624 122.64C242.557 122.64 241.736 122.971 241.16 123.632C240.584 124.272 240.296 125.168 240.296 126.32V128.88C240.296 130.032 240.584 130.939 241.16 131.6C241.736 132.24 242.557 132.56 243.624 132.56Z" fill="#FD3E81"/>
<path d="M262.907 136.24C261.627 136.24 260.475 136.048 259.451 135.664C258.427 135.259 257.553 134.683 256.827 133.936C256.123 133.19 255.579 132.283 255.195 131.216C254.811 130.15 254.619 128.944 254.619 127.6C254.619 126.256 254.811 125.051 255.195 123.984C255.579 122.918 256.123 122.011 256.827 121.264C257.553 120.518 258.427 119.952 259.451 119.568C260.475 119.163 261.627 118.96 262.907 118.96C264.187 118.96 265.339 119.163 266.363 119.568C267.387 119.952 268.251 120.518 268.955 121.264C269.681 122.011 270.235 122.918 270.619 123.984C271.003 125.051 271.195 126.256 271.195 127.6C271.195 128.944 271.003 130.15 270.619 131.216C270.235 132.283 269.681 133.19 268.955 133.936C268.251 134.683 267.387 135.259 266.363 135.664C265.339 136.048 264.187 136.24 262.907 136.24ZM262.907 132.72C263.974 132.72 264.806 132.39 265.403 131.728C266.001 131.067 266.299 130.128 266.299 128.912V126.288C266.299 125.072 266.001 124.134 265.403 123.472C264.806 122.811 263.974 122.48 262.907 122.48C261.841 122.48 261.009 122.811 260.411 123.472C259.814 124.134 259.515 125.072 259.515 126.288V128.912C259.515 130.128 259.814 131.067 260.411 131.728C261.009 132.39 261.841 132.72 262.907 132.72Z" fill="#FD3E81"/>
<path d="M294.05 132.176H297.858V123.024H294.05V119.344H302.594V124.016H302.818C302.968 123.419 303.17 122.843 303.426 122.288C303.704 121.712 304.045 121.211 304.45 120.784C304.877 120.336 305.389 119.984 305.986 119.728C306.584 119.472 307.288 119.344 308.098 119.344H309.666V123.696H306.146C304.973 123.696 304.088 124.048 303.49 124.752C302.893 125.435 302.594 126.278 302.594 127.28V132.176H308.034V135.856H294.05V132.176Z" fill="#FD3E81"/>
<path d="M311.83 135.856V119.344H315.638V121.776H315.862C316.118 121.008 316.48 120.347 316.95 119.792C317.44 119.238 318.123 118.96 318.998 118.96C320.598 118.96 321.579 119.899 321.942 121.776H322.134C322.262 121.392 322.422 121.03 322.614 120.688C322.806 120.347 323.04 120.048 323.318 119.792C323.595 119.536 323.926 119.334 324.31 119.184C324.694 119.035 325.142 118.96 325.654 118.96C327.958 118.96 329.11 120.656 329.11 124.048V135.856H325.302V124.528C325.302 123.76 325.163 123.227 324.886 122.928C324.63 122.608 324.288 122.448 323.862 122.448C323.456 122.448 323.104 122.587 322.806 122.864C322.528 123.12 322.39 123.526 322.39 124.08V135.856H318.55V124.528C318.55 123.76 318.422 123.227 318.166 122.928C317.931 122.608 317.6 122.448 317.174 122.448C316.747 122.448 316.384 122.587 316.086 122.864C315.787 123.12 315.638 123.526 315.638 124.08V135.856H311.83Z" fill="#FD3E81"/>
<path d="M46.7247 173.368V168.824H56.9647V173.368H46.7247Z" fill="#FD3E81"/>
<path d="M63.8002 177.176H67.6082V168.024H63.8002V164.344H72.3442V169.016H72.5682C72.7175 168.419 72.9202 167.843 73.1762 167.288C73.4535 166.712 73.7948 166.211 74.2002 165.784C74.6268 165.336 75.1388 164.984 75.7362 164.728C76.3335 164.472 77.0375 164.344 77.8482 164.344H79.4162V168.696H75.8962C74.7228 168.696 73.8375 169.048 73.2402 169.752C72.6428 170.435 72.3442 171.278 72.3442 172.28V177.176H77.7842V180.856H63.8002V177.176Z" fill="#FD3E81"/>
<path d="M82.8917 177.176H87.7557V168.024H82.5717V164.344H87.7557V161.944C87.7557 160.536 88.161 159.395 88.9717 158.52C89.8037 157.624 91.0837 157.176 92.8117 157.176H98.4117V160.856H92.4917V164.344H98.4117V168.024H92.4917V177.176H97.6757V180.856H82.8917V177.176Z" fill="#FD3E81"/>
<path d="M101.727 187V183.128H117.087V187H101.727Z" fill="#FD3E81"/>
<g filter="url(#filter1_d)">
<rect x="245.568" y="26.6908" width="297.867" height="343.766" rx="8" fill="white"/>
</g>
<path d="M280.108 86.8564V63.2564H285.836V82.2644H294.428V86.8564H280.108Z" fill="black"/>
<path d="M315.245 81.4804C315.149 82.4724 314.728 83.4111 313.981 84.2964C313.234 85.1711 312.189 85.8858 310.845 86.4404C309.501 86.9844 307.885 87.2564 305.997 87.2564C304.056 87.2564 302.37 86.8831 300.941 86.1364C299.522 85.3791 298.418 84.3338 297.629 83.0004C296.85 81.6671 296.461 80.1311 296.461 78.3924C296.461 76.6218 296.861 75.0751 297.661 73.7524C298.461 72.4191 299.576 71.3844 301.005 70.6484C302.445 69.9018 304.109 69.5284 305.997 69.5284C307.949 69.5284 309.634 69.9071 311.053 70.6644C312.472 71.4111 313.565 72.4671 314.333 73.8324C315.101 75.1978 315.485 76.8031 315.485 78.6484C315.485 78.9364 315.474 79.2031 315.453 79.4484C315.442 79.6831 315.432 79.8644 315.421 79.9924H302.269C302.482 80.9738 302.914 81.7311 303.565 82.2644C304.216 82.7978 305.106 83.0644 306.237 83.0644C307.421 83.0644 308.264 82.8938 308.765 82.5524C309.277 82.2004 309.56 81.8431 309.613 81.4804H315.245ZM306.077 73.6564C304.093 73.6564 302.845 74.5791 302.333 76.4244H309.693C309.618 75.7418 309.293 75.1124 308.717 74.5364C308.152 73.9498 307.272 73.6564 306.077 73.6564Z" fill="black"/>
<path d="M325.432 87.2564C324.429 87.2564 323.448 87.1391 322.488 86.9044C321.528 86.6698 320.659 86.3178 319.88 85.8484C319.101 85.3684 318.483 84.7711 318.024 84.0564C317.565 83.3418 317.336 82.5098 317.336 81.5604V81.3364H323V81.5284C323 82.0618 323.229 82.4458 323.688 82.6804C324.157 82.9151 324.792 83.0324 325.592 83.0324C325.955 83.0324 326.323 82.9951 326.696 82.9204C327.08 82.8351 327.4 82.7018 327.656 82.5204C327.923 82.3391 328.056 82.0991 328.056 81.8004C328.056 81.3418 327.779 81.0164 327.224 80.8244C326.669 80.6324 325.747 80.4298 324.456 80.2164C323.709 80.0991 322.931 79.9231 322.12 79.6884C321.32 79.4538 320.573 79.1391 319.88 78.7444C319.187 78.3498 318.627 77.8484 318.2 77.2404C317.773 76.6218 317.56 75.8751 317.56 75.0004C317.56 73.7951 317.923 72.7871 318.648 71.9764C319.373 71.1658 320.333 70.5578 321.528 70.1524C322.733 69.7364 324.056 69.5284 325.496 69.5284C326.851 69.5284 328.125 69.7578 329.32 70.2164C330.515 70.6751 331.48 71.3311 332.216 72.1844C332.963 73.0378 333.336 74.0511 333.336 75.2244V75.4164H327.736V75.2404C327.736 74.6964 327.491 74.3071 327 74.0724C326.509 73.8271 325.997 73.7044 325.464 73.7044C325.155 73.7044 324.819 73.7418 324.456 73.8164C324.093 73.8804 323.784 73.9978 323.528 74.1684C323.272 74.3391 323.144 74.5791 323.144 74.8884C323.144 75.3151 323.469 75.6351 324.12 75.8484C324.771 76.0618 325.603 76.2484 326.616 76.4084C327.277 76.5151 328.003 76.6698 328.792 76.8724C329.592 77.0644 330.355 77.3524 331.08 77.7364C331.816 78.1098 332.413 78.6111 332.872 79.2404C333.341 79.8698 333.576 80.6698 333.576 81.6404C333.576 82.6644 333.336 83.5338 332.856 84.2484C332.387 84.9631 331.757 85.5444 330.968 85.9924C330.179 86.4298 329.299 86.7498 328.328 86.9524C327.368 87.1551 326.403 87.2564 325.432 87.2564Z" fill="black"/>
<path d="M343.557 87.2564C342.554 87.2564 341.573 87.1391 340.613 86.9044C339.653 86.6698 338.784 86.3178 338.005 85.8484C337.226 85.3684 336.608 84.7711 336.149 84.0564C335.69 83.3418 335.461 82.5098 335.461 81.5604V81.3364H341.125V81.5284C341.125 82.0618 341.354 82.4458 341.813 82.6804C342.282 82.9151 342.917 83.0324 343.717 83.0324C344.08 83.0324 344.448 82.9951 344.821 82.9204C345.205 82.8351 345.525 82.7018 345.781 82.5204C346.048 82.3391 346.181 82.0991 346.181 81.8004C346.181 81.3418 345.904 81.0164 345.349 80.8244C344.794 80.6324 343.872 80.4298 342.581 80.2164C341.834 80.0991 341.056 79.9231 340.245 79.6884C339.445 79.4538 338.698 79.1391 338.005 78.7444C337.312 78.3498 336.752 77.8484 336.325 77.2404C335.898 76.6218 335.685 75.8751 335.685 75.0004C335.685 73.7951 336.048 72.7871 336.773 71.9764C337.498 71.1658 338.458 70.5578 339.653 70.1524C340.858 69.7364 342.181 69.5284 343.621 69.5284C344.976 69.5284 346.25 69.7578 347.445 70.2164C348.64 70.6751 349.605 71.3311 350.341 72.1844C351.088 73.0378 351.461 74.0511 351.461 75.2244V75.4164H345.861V75.2404C345.861 74.6964 345.616 74.3071 345.125 74.0724C344.634 73.8271 344.122 73.7044 343.589 73.7044C343.28 73.7044 342.944 73.7418 342.581 73.8164C342.218 73.8804 341.909 73.9978 341.653 74.1684C341.397 74.3391 341.269 74.5791 341.269 74.8884C341.269 75.3151 341.594 75.6351 342.245 75.8484C342.896 76.0618 343.728 76.2484 344.741 76.4084C345.402 76.5151 346.128 76.6698 346.917 76.8724C347.717 77.0644 348.48 77.3524 349.205 77.7364C349.941 78.1098 350.538 78.6111 350.997 79.2404C351.466 79.8698 351.701 80.6698 351.701 81.6404C351.701 82.6644 351.461 83.5338 350.981 84.2484C350.512 84.9631 349.882 85.5444 349.093 85.9924C348.304 86.4298 347.424 86.7498 346.453 86.9524C345.493 87.1551 344.528 87.2564 343.557 87.2564Z" fill="black"/>
<path d="M363.09 87.2404C361.213 87.2404 359.559 86.8671 358.13 86.1204C356.711 85.3631 355.597 84.3178 354.786 82.9844C353.986 81.6511 353.586 80.1151 353.586 78.3764C353.586 76.6271 353.986 75.0911 354.786 73.7684C355.597 72.4351 356.711 71.3951 358.13 70.6484C359.559 69.9018 361.213 69.5284 363.09 69.5284C364.967 69.5284 366.615 69.9018 368.034 70.6484C369.463 71.3951 370.578 72.4351 371.378 73.7684C372.189 75.0911 372.594 76.6271 372.594 78.3764C372.594 80.1151 372.189 81.6511 371.378 82.9844C370.578 84.3178 369.463 85.3631 368.034 86.1204C366.615 86.8671 364.967 87.2404 363.09 87.2404ZM363.09 82.8404C364.231 82.8404 365.133 82.4351 365.794 81.6244C366.466 80.8138 366.802 79.7311 366.802 78.3764C366.802 77.0218 366.466 75.9444 365.794 75.1444C365.133 74.3444 364.231 73.9444 363.09 73.9444C361.949 73.9444 361.042 74.3444 360.37 75.1444C359.709 75.9444 359.378 77.0218 359.378 78.3764C359.378 79.7311 359.709 80.8138 360.37 81.6244C361.042 82.4351 361.949 82.8404 363.09 82.8404Z" fill="black"/>
<path d="M375.309 86.8564V69.8644H381.005V72.5044C381.645 71.5658 382.477 70.8351 383.501 70.3124C384.525 69.7898 385.656 69.5284 386.893 69.5284C388.312 69.5284 389.458 69.8164 390.333 70.3924C391.218 70.9684 391.864 71.7684 392.269 72.7924C392.685 73.8164 392.893 74.9951 392.893 76.3284V86.8564H387.197V77.9924C387.197 77.3524 387.122 76.7551 386.973 76.2004C386.834 75.6351 386.557 75.1818 386.141 74.8404C385.725 74.4884 385.106 74.3124 384.285 74.3124C383.197 74.3124 382.376 74.6644 381.821 75.3684C381.277 76.0618 381.005 76.9898 381.005 78.1524V86.8564H375.309Z" fill="black"/>
<path fill-rule="evenodd" clip-rule="evenodd" d="M279.21 140.27C279.21 132.17 285.777 125.603 293.877 125.603C301.977 125.603 308.544 132.17 308.544 140.27C308.544 148.37 301.977 154.937 293.877 154.937C285.777 154.937 279.21 148.37 279.21 140.27ZM300.958 134.994C301.479 135.515 301.479 136.359 300.958 136.879L292.682 145.546C292.161 146.067 291.317 146.067 290.796 145.546L286.796 141.546C286.276 141.025 286.276 140.181 286.796 139.66C287.317 139.14 288.161 139.14 288.682 139.66L291.739 142.718L299.072 134.994C299.593 134.473 300.437 134.473 300.958 134.994Z" fill="#037971"/>
<path fill-rule="evenodd" clip-rule="evenodd" d="M279.21 213.241C279.21 205.14 285.777 198.574 293.877 198.574C301.977 198.574 308.544 205.14 308.544 213.241C308.544 221.341 301.977 227.907 293.877 227.907C285.777 227.907 279.21 221.341 279.21 213.241ZM300.958 207.964C301.479 208.485 301.479 209.329 300.958 209.85L292.682 218.517C292.161 219.037 291.317 219.037 290.796 218.517L286.796 214.517C286.276 213.996 286.276 213.152 286.796 212.631C287.317 212.11 288.161 212.11 288.682 212.631L291.739 215.688L299.072 207.964C299.593 207.444 300.437 207.444 300.958 207.964Z" fill="#037971"/>
<path fill-rule="evenodd" clip-rule="evenodd" d="M279.21 286.211C279.21 278.111 285.777 271.544 293.877 271.544C301.977 271.544 308.544 278.111 308.544 286.211C308.544 294.311 301.977 300.878 293.877 300.878C285.777 300.878 279.21 294.311 279.21 286.211ZM300.958 280.935C301.479 281.455 301.479 282.3 300.958 282.82L292.682 291.487C292.161 292.008 291.317 292.008 290.796 291.487L286.796 287.487C286.276 286.966 286.276 286.122 286.796 285.601C287.317 285.081 288.161 285.081 288.682 285.601L291.739 288.659L299.072 280.935C299.593 280.414 300.437 280.414 300.958 280.935Z" fill="#037971"/>
<rect x="327.362" y="131.726" width="171.884" height="17.0879" rx="8.54394" fill="#C4C4C4"/>
<rect x="327.362" y="205.291" width="155.299" height="17.0879" rx="8.54394" fill="#C4C4C4"/>
<rect x="327.362" y="278.261" width="171.884" height="17.0879" rx="8.54394" fill="#C4C4C4"/>
<rect x="327.362" y="159.871" width="114.087" height="17.0879" rx="8.54394" fill="#C4C4C4"/>
<rect x="327.362" y="233.436" width="138.714" height="17.0879" rx="8.54394" fill="#C4C4C4"/>
<rect x="327.362" y="306.406" width="62.8234" height="17.0879" rx="8.54394" fill="#C4C4C4"/>
<defs>
<filter id="filter0_d" x="0.379395" y="65.6539" width="391.948" height="273.84" filterUnits="userSpaceOnUse" color-interpolation-filters="sRGB">
<feFlood flood-opacity="0" result="BackgroundImageFix"/>
<feColorMatrix in="SourceAlpha" type="matrix" values="0 0 0 0 0 0 0 0 0 0 0 0 0 0 0 0 0 0 127 0"/>
<feOffset dy="4"/>
<feGaussianBlur stdDeviation="6"/>
<feColorMatrix type="matrix" values="0 0 0 0 0 0 0 0 0 0 0 0 0 0 0 0 0 0 0.24 0"/>
<feBlend mode="normal" in2="BackgroundImageFix" result="effect1_dropShadow"/>
<feBlend mode="normal" in="SourceGraphic" in2="effect1_dropShadow" result="shape"/>
</filter>
<filter id="filter1_d" x="213.568" y="0.690826" width="361.867" height="407.766" filterUnits="userSpaceOnUse" color-interpolation-filters="sRGB">
<feFlood flood-opacity="0" result="BackgroundImageFix"/>
<feColorMatrix in="SourceAlpha" type="matrix" values="0 0 0 0 0 0 0 0 0 0 0 0 0 0 0 0 0 0 127 0"/>
<feOffset dy="6"/>
<feGaussianBlur stdDeviation="16"/>
<feColorMatrix type="matrix" values="0 0 0 0 0 0 0 0 0 0 0 0 0 0 0 0 0 0 0.1 0"/>
<feBlend mode="normal" in2="BackgroundImageFix" result="effect1_dropShadow"/>
<feBlend mode="normal" in="SourceGraphic" in2="effect1_dropShadow" result="shape"/>
</filter>
</defs>
</svg>
