<svg width="1280" height="715" viewBox="0 0 1280 715" fill="none" xmlns="http://www.w3.org/2000/svg">
<path d="M0 0H1280V507.204C1280 507.204 971.238 452.873 640 452.873C308.762 452.873 0 507.204 0 507.204V0Z" fill="#2C1C64"/>
<path d="M0 0H1280V507.204C1280 507.204 971.238 452.873 640 452.873C308.762 452.873 0 507.204 0 507.204V0Z" fill="url(#paint0_radial)"/>
<path d="M0 0H1280V507.204C1280 507.204 971.238 452.873 640 452.873C308.762 452.873 0 507.204 0 507.204V0Z" fill="url(#paint1_radial)"/>
<path d="M0 0H1280V507.204C1280 507.204 971.238 452.873 640 452.873C308.762 452.873 0 507.204 0 507.204V0Z" fill="url(#paint2_radial)"/>
<defs>
<radialGradient id="paint0_radial" cx="0" cy="0" r="1" gradientUnits="userSpaceOnUse" gradientTransform="translate(-175.312 -62.2409) rotate(30.0399) scale(1045.7 2638.97)">
<stop stop-color="#9272FF"/>
<stop offset="1" stop-color="#2C1C64" stop-opacity="0"/>
</radialGradient>
<radialGradient id="paint1_radial" cx="0" cy="0" r="1" gradientUnits="userSpaceOnUse" gradientTransform="translate(1419.39 -82.6696) rotate(142.88) scale(977.443 2466.72)">
<stop stop-color="#FD3E81"/>
<stop offset="1" stop-color="#2C1C64" stop-opacity="0"/>
</radialGradient>
<radialGradient id="paint2_radial" cx="0" cy="0" r="1" gradientUnits="userSpaceOnUse" gradientTransform="translate(1360.66 629.775) rotate(-165.21) scale(635.178 1602.96)">
<stop stop-color="#76E5FC" stop-opacity="0.72"/>
<stop offset="1" stop-color="#2C1C64" stop-opacity="0"/>
</radialGradient>
</defs>
</svg>
